<svg xmlns="http://www.w3.org/2000/svg" width="960" height="520" viewBox="0 0 960 520">
<rect width="100%" height="100%" fill="#ffffff"/>
<text x="480.0" y="34" text-anchor="middle" font-family="Arial" font-size="24" fill="#16232a">Top model features</text>
<text x="178" y="85.7" text-anchor="end" font-family="Arial" font-size="13" fill="#27343b">days_with_impressions</text>
<rect x="190" y="70.0" width="115.4" height="24.2" fill="#4E79A7" rx="4"/>
<text x="313.4" y="85.7" font-family="Arial" font-size="13" fill="#27343b">0.158</text>
<text x="178" y="119.9" text-anchor="end" font-family="Arial" font-size="13" fill="#27343b">log_impressions_90d</text>
<rect x="190" y="104.2" width="93.9" height="24.2" fill="#4E79A7" rx="4"/>
<text x="291.9" y="119.9" font-family="Arial" font-size="13" fill="#27343b">0.129</text>
<text x="178" y="154.0" text-anchor="end" font-family="Arial" font-size="13" fill="#27343b">avg_position</text>
<rect x="190" y="138.3" width="79.7" height="24.2" fill="#4E79A7" rx="4"/>
<text x="277.7" y="154.0" font-family="Arial" font-size="13" fill="#27343b">0.109</text>
<text x="178" y="188.2" text-anchor="end" font-family="Arial" font-size="13" fill="#27343b">content_age_days</text>
<rect x="190" y="172.5" width="69.5" height="24.2" fill="#4E79A7" rx="4"/>
<text x="267.5" y="188.2" font-family="Arial" font-size="13" fill="#27343b">0.0952</text>
<text x="178" y="222.4" text-anchor="end" font-family="Arial" font-size="13" fill="#27343b">char_count</text>
<rect x="190" y="206.7" width="31.1" height="24.2" fill="#4E79A7" rx="4"/>
<text x="229.1" y="222.4" font-family="Arial" font-size="13" fill="#27343b">0.0426</text>
<text x="178" y="256.5" text-anchor="end" font-family="Arial" font-size="13" fill="#27343b">word_count</text>
<rect x="190" y="240.8" width="28.9" height="24.2" fill="#4E79A7" rx="4"/>
<text x="226.9" y="256.5" font-family="Arial" font-size="13" fill="#27343b">0.0396</text>
<text x="178" y="290.7" text-anchor="end" font-family="Arial" font-size="13" fill="#27343b">log_clicks_90d</text>
<rect x="190" y="275.0" width="25.2" height="24.2" fill="#4E79A7" rx="4"/>
<text x="223.2" y="290.7" font-family="Arial" font-size="13" fill="#27343b">0.0345</text>
<text x="178" y="324.9" text-anchor="end" font-family="Arial" font-size="13" fill="#27343b">ctr</text>
<rect x="190" y="309.2" width="24.3" height="24.2" fill="#4E79A7" rx="4"/>
<text x="222.3" y="324.9" font-family="Arial" font-size="13" fill="#27343b">0.0333</text>
<text x="178" y="359.0" text-anchor="end" font-family="Arial" font-size="13" fill="#27343b">scroll_rate</text>
<rect x="190" y="343.3" width="22.8" height="24.2" fill="#4E79A7" rx="4"/>
<text x="220.8" y="359.0" font-family="Arial" font-size="13" fill="#27343b">0.0312</text>
<text x="178" y="393.2" text-anchor="end" font-family="Arial" font-size="13" fill="#27343b">days_with_sessions</text>
<rect x="190" y="377.5" width="20.4" height="24.2" fill="#4E79A7" rx="4"/>
<text x="218.4" y="393.2" font-family="Arial" font-size="13" fill="#27343b">0.028</text>
<text x="178" y="427.4" text-anchor="end" font-family="Arial" font-size="13" fill="#27343b">position_tier_top_3</text>
<rect x="190" y="411.7" width="19.2" height="24.2" fill="#4E79A7" rx="4"/>
<text x="217.2" y="427.4" font-family="Arial" font-size="13" fill="#27343b">0.0262</text>
<text x="178" y="461.5" text-anchor="end" font-family="Arial" font-size="13" fill="#27343b">log_sessions_90d</text>
<rect x="190" y="445.8" width="16.5" height="24.2" fill="#4E79A7" rx="4"/>
<text x="214.5" y="461.5" font-family="Arial" font-size="13" fill="#27343b">0.0226</text>
</svg>